<?xml version="1.0" encoding="UTF-8" standalone="no"?><!DOCTYPE svg PUBLIC "-//W3C//DTD SVG 1.1//EN" "http://www.w3.org/Graphics/SVG/1.1/DTD/svg11.dtd"><svg width="100%" height="100%" viewBox="0 0 291 330" version="1.1" xmlns="http://www.w3.org/2000/svg" xmlns:xlink="http://www.w3.org/1999/xlink" xml:space="preserve" xmlns:serif="http://www.serif.com/" style="fill-rule:evenodd;clip-rule:evenodd;stroke-linejoin:round;stroke-miterlimit:2;"><g id="g3013"><path id="polygon2989" d="M290.187,0l-26.437,296.159l-118.834,32.945l-118.507,-32.898l-26.409,-296.206l290.187,0Z" style="fill:#264de4;fill-rule:nonzero;"/><path id="polygon2991" d="M241.118,277.301l22.592,-253.082l-118.616,0l0,279.703l96.024,-26.622Z" style="fill:#2965f1;fill-rule:nonzero;"/><path id="polygon2993" d="M60.542,134.078l3.256,36.328l81.296,0l0,-36.328l-84.552,0Z" style="fill:#ebebeb;fill-rule:nonzero;"/><path id="polygon2995" d="M145.094,60.548l-91.094,0l3.302,36.329l87.792,0l0,-36.329Z" style="fill:#ebebeb;fill-rule:nonzero;"/><path id="polygon2997" d="M145.094,266.223l0,-37.797l-0.159,0.042l-40.459,-10.925l-2.586,-28.974l-36.468,0l5.09,57.041l74.416,20.658l0.167,-0.046Z" style="fill:#ebebeb;fill-rule:nonzero;"/><path id="polygon3005" d="M189.702,170.406l-4.217,47.115l-40.518,10.936l0,37.795l74.475,-20.641l0.546,-6.138l8.537,-95.641l0.886,-9.755l6.558,-73.53l-91.003,0l0,36.329l51.19,0l-3.306,37.201l-47.885,0l0,36.328l44.734,0Z" style="fill:#fff;fill-rule:nonzero;"/></g></svg>