<?xml version="1.0" encoding="UTF-8" standalone="no"?>
<svg
   version="1.1"
   id="Layer_1"
   x="0px"
   y="0px"
   width="600"
   viewBox="0 0 600 600"
   enable-background="new 0 0 595 621"
   xml:space="preserve"
   height="600"
   xmlns="http://www.w3.org/2000/svg"
   xmlns:svg="http://www.w3.org/2000/svg"><defs
   id="defs2" />


<g
   id="g4"><path
     id="rect2"
     style="fill:#1a1a1a;stroke:#000000;stroke-width:0"
     d="M 140.9626,0 H 459.0374 C 537.13068,0 600,62.86932 600,140.9626 V 459.0374 C 600,537.13068 537.13068,600 459.0374,600 H 140.9626 C 62.86932,600 0,537.13068 0,459.0374 V 140.9626 C 0,62.86932 62.86932,0 140.9626,0 Z" /><path
     fill="#009cd9"
     opacity="1"
     stroke="none"
     d="m 373.8799,254.77861 c 6.91803,32.40892 13.80114,64.39534 20.64737,96.38963 5.9075,27.60736 11.66064,55.24857 17.76568,82.81201 1.03998,4.69541 0.0378,7.95239 -2.88965,11.60651 -18.47174,23.05667 -36.66851,46.33359 -55.12811,69.40018 -1.48938,1.86111 -4.13602,3.48379 -6.47085,3.87765 -35.87772,6.05185 -71.79116,11.89215 -107.70276,17.74185 -2.94887,0.48041 -5.94425,0.95209 -8.91872,0.95667 -40.66066,0.0626 -81.32145,0.0438 -121.98221,0.0339 -1.31383,-3.6e-4 -2.62762,-0.11944 -4.67304,-0.21875 1.40202,-44.01242 2.79691,-87.80169 4.20137,-131.89099 47.72694,-3.41815 94.9788,-6.80227 142.76499,-10.22467 -5.39831,-54.48462 -10.752,-108.51871 -16.16426,-163.14412 -47.13656,-3.81407 -94.14494,-7.61778 -141.365403,-11.43866 0,-42.25996 0,-84.03528 0,-127.061841 6.165373,0 12.409423,0.105735 18.648893,-0.01837 26.46782,-0.526466 52.94989,-0.728294 79.39782,-1.777924 46.0103,-1.825996 91.81135,2.366837 137.69142,4.162178 51.72192,2.023926 103.42199,4.605347 155.1311,6.954557 0.99246,0.0451 1.97916,0.21696 3.33475,0.3714 0,38.92792 0,77.83078 0,117.36402 -39.37842,3.78982 -78.85089,7.5887 -118.93173,11.44613 1.59634,7.73053 3.09436,14.98503 4.64334,22.65862 z"
     id="path2" /></g></svg>
