<?xml version="1.0" encoding="UTF-8" standalone="no"?>
<!DOCTYPE svg PUBLIC "-//W3C//DTD SVG 1.1//EN" "http://www.w3.org/Graphics/SVG/1.1/DTD/svg11.dtd">
<svg width="100%" height="100%" viewBox="0 0 561 548" version="1.1" xmlns="http://www.w3.org/2000/svg" xmlns:xlink="http://www.w3.org/1999/xlink" xml:space="preserve" xmlns:serif="http://www.serif.com/" style="fill-rule:evenodd;clip-rule:evenodd;stroke-linejoin:round;stroke-miterlimit:2;">
    <g transform="matrix(1,0,0,1,-119.525,-133.575)">
        <g transform="matrix(25,0,0,25,0,0)">
            <path d="M16,5.343C9.804,5.343 4.781,10.366 4.781,16.562C4.781,21.519 7.995,25.724 12.454,27.207C13.015,27.31 13.22,26.963 13.22,26.667C13.22,26.4 13.21,25.515 13.204,24.579C10.084,25.257 9.425,23.256 9.425,23.256C8.914,21.96 8.179,21.615 8.179,21.615C7.159,20.919 8.256,20.933 8.256,20.933C9.382,21.011 9.976,22.089 9.976,22.089C10.977,23.804 12.603,23.308 13.241,23.02C13.343,22.297 13.633,21.801 13.953,21.522C11.463,21.239 8.843,20.276 8.843,15.977C8.843,14.751 9.281,13.752 9.997,12.966C9.883,12.681 9.496,11.54 10.108,9.996C10.108,9.996 11.049,9.695 13.193,11.146C14.087,10.896 15.047,10.773 16,10.769C16.953,10.773 17.913,10.898 18.809,11.148C20.949,9.695 21.892,9.998 21.892,9.998C22.505,11.543 22.119,12.683 22.004,12.967C22.723,13.752 23.157,14.752 23.157,15.978C23.157,20.288 20.533,21.237 18.034,21.515C18.438,21.863 18.795,22.545 18.795,23.591C18.795,25.091 18.78,26.3 18.78,26.67C18.78,26.969 18.984,27.318 19.552,27.208C24.007,25.722 27.218,21.518 27.218,16.563C27.218,10.368 22.195,5.344 15.999,5.344L16,5.343Z" style="fill:rgb(68,68,68);fill-rule:nonzero;"/>
        </g>
    </g>
</svg>
