<?xml version="1.0" encoding="UTF-8" standalone="no"?>
<!DOCTYPE svg PUBLIC "-//W3C//DTD SVG 1.1//EN" "http://www.w3.org/Graphics/SVG/1.1/DTD/svg11.dtd">
<svg width="100%" height="100%" viewBox="0 0 380 329" version="1.1" xmlns="http://www.w3.org/2000/svg" xmlns:xlink="http://www.w3.org/1999/xlink" xml:space="preserve" xmlns:serif="http://www.serif.com/" style="fill-rule:evenodd;clip-rule:evenodd;stroke-linejoin:round;stroke-miterlimit:2;">
    <g transform="matrix(1,0,0,1,-210.04706,-158.803031)">
        <g transform="matrix(3.779528,0,0,3.779528,-42.885983,-118.557967)">
            <g id="g1898" transform="matrix(1.346333,0,0,1.346333,375.33156,-1215.5059)">
                <g id="g1882">
                    <path id="path1290" d="M-173.385,989.645L-154.51,1010.387C-156.584,1012.531 -159.488,1013.845 -162.669,1013.845C-166.057,1013.845 -169.029,1012.393 -171.104,1010.111L-181.544,998.634L-189.703,989.645L-181.544,980.726L-171.104,969.248C-169.029,966.967 -166.057,965.514 -162.669,965.514C-159.488,965.514 -156.584,966.828 -154.51,968.902L-173.385,989.645Z" style="fill:rgb(229,112,0);fill-rule:nonzero;"/>
                    <path id="path1292" d="M-210.199,989.645L-229.074,1010.387C-226.999,1012.53 -224.096,1013.845 -220.914,1013.845C-217.527,1013.845 -214.554,1012.393 -212.48,1010.111L-202.04,998.634L-193.881,989.645L-202.04,980.725L-212.48,969.248C-214.554,966.967 -217.527,965.514 -220.914,965.514C-224.096,965.514 -226.999,966.828 -229.074,968.902L-210.199,989.645Z" style="fill:rgb(229,112,0);fill-rule:nonzero;"/>
                    <path id="path1294" d="M-184.354,999.93L-191.801,991.725L-199.248,999.93L-216.477,1018.862C-214.584,1020.756 -211.932,1021.955 -209.03,1021.955C-205.938,1021.955 -203.35,1020.692 -201.394,1018.547L-191.801,1008.071L-182.272,1018.547C-180.379,1020.629 -177.666,1021.955 -174.574,1021.955C-171.67,1021.955 -169.019,1020.756 -167.126,1018.862L-184.354,999.93Z" style="fill-rule:nonzero;"/>
                    <path id="path1296" d="M-184.355,979.359L-191.802,987.564L-199.249,979.359L-216.477,960.426C-214.584,958.533 -211.933,957.334 -209.031,957.334C-205.938,957.334 -203.35,958.597 -201.395,960.742L-191.802,971.218L-182.273,960.742C-180.379,958.66 -177.666,957.334 -174.574,957.334C-171.671,957.334 -169.02,958.533 -167.127,960.426L-184.355,979.359Z" style="fill-rule:nonzero;"/>
                </g>
            </g>
        </g>
    </g>
</svg>
