<?xml version="1.0" encoding="UTF-8" standalone="no"?>
<!DOCTYPE svg PUBLIC "-//W3C//DTD SVG 1.1//EN" "http://www.w3.org/Graphics/SVG/1.1/DTD/svg11.dtd">
<svg width="100%" height="100%" viewBox="0 0 10 18" version="1.1" xmlns="http://www.w3.org/2000/svg" xmlns:xlink="http://www.w3.org/1999/xlink" xml:space="preserve" xmlns:serif="http://www.serif.com/" style="fill-rule:evenodd;clip-rule:evenodd;stroke-linejoin:round;stroke-miterlimit:2;">
    <g transform="matrix(1,0,0,1,-11.279672,-7.01)">
        <path d="M14.42,9.31C14.16,9.41 13.75,9.61 13.51,9.75C13.37,9.83 13.25,9.92 13.13,10.01C12.91,10.18 12.59,10.5 12.42,10.72C12.34,10.82 12.27,10.92 12.2,11.02C12.05,11.25 11.84,11.66 11.77,11.93C11.73,12.07 11.7,12.22 11.68,12.37C11.64,12.65 11.64,13.11 11.67,13.38C11.69,13.6 11.73,13.81 11.79,14.02C11.86,14.29 12.05,14.71 12.2,14.94C12.27,15.04 12.34,15.14 12.42,15.24C12.59,15.46 12.93,15.76 13.16,15.92C13.31,16.03 13.47,16.15 13.64,16.26C13.87,16.42 14.27,16.62 14.53,16.73C14.78,16.84 15.04,16.96 15.31,17.07C15.57,17.17 16,17.3 16.25,17.42C16.279,17.429 16.305,17.443 16.33,17.46C17,17.66 17.49,18.04 17.79,18.57C17.85,18.68 17.99,18.99 17.99,19.27C17.99,19.39 18.06,19.75 17.94,19.99C17.37,21.15 16.67,21.13 15.59,21.09C14.62,20.87 14.24,20.29 13.95,19.41C13.94,19.37 13.93,19.33 13.93,19.29C13.88,19.01 13.66,18.78 13.38,18.78L11.77,18.78C11.49,18.78 11.27,19.01 11.28,19.29C11.3,19.62 11.35,19.94 11.42,20.23C11.48,20.5 11.65,20.93 11.78,21.18C11.88,21.36 11.99,21.53 12.11,21.69C12.29,21.91 12.65,22.18 12.87,22.34C13.01,22.44 13.16,22.54 13.32,22.63C13.56,22.77 13.98,22.94 14.24,23.04C14.32,23.07 14.4,23.09 14.48,23.11C14.75,23.17 14.98,23.39 14.98,23.67L14.98,24.48C14.98,24.76 15.2,24.99 15.48,24.99L16.59,24.99C16.87,24.99 17.09,24.76 17.09,24.48L17.09,23.67C17.09,23.39 17.31,23.13 17.58,23.06C17.71,23.03 17.82,22.99 17.93,22.95C18.19,22.85 18.6,22.67 18.84,22.52C19.39,22.18 19.77,21.75 20.13,21.25C20.29,21.02 20.52,20.63 20.59,20.36C20.64,20.19 20.67,20.01 20.69,19.82C20.72,19.54 20.72,19.08 20.69,18.8C20.67,18.61 20.64,18.43 20.59,18.26C20.491,17.936 20.35,17.627 20.17,17.34C19.79,16.74 19.25,16.32 18.71,15.94C18.48,15.78 18.09,15.55 17.84,15.43C17.23,15.15 16.66,14.97 16.04,14.72C15.78,14.62 15.36,14.46 15.15,14.28C14.99,14.15 14.7,13.88 14.55,13.64C14.446,13.449 14.388,13.237 14.38,13.02C14.38,12.96 14.36,12.67 14.41,12.4C14.43,12.28 14.56,11.98 14.72,11.75C14.75,11.71 14.93,11.48 15.19,11.41C15.29,11.38 15.59,11.3 15.87,11.29C16.04,11.28 16.41,11.26 16.69,11.32C16.81,11.34 17.11,11.48 17.33,11.65C17.43,11.73 17.67,11.96 17.79,12.21C17.86,12.37 17.98,12.73 17.99,13.01L17.99,13.02C18.01,13.3 18.22,13.53 18.5,13.53L20.11,13.53C20.39,13.53 20.62,13.3 20.59,13.02C20.57,12.77 20.53,12.52 20.47,12.28C20.4,12.01 20.23,11.58 20.12,11.33C20.053,11.182 19.976,11.038 19.89,10.9C19.75,10.66 19.48,10.29 19.27,10.1C19.16,10 19.05,9.91 18.93,9.82C18.7,9.66 18.3,9.45 18.06,9.31C17.97,9.26 17.88,9.22 17.78,9.18C17.52,9.08 17.29,8.82 17.29,8.54L17.29,7.52C17.29,7.24 17.07,7.01 16.79,7.01L15.68,7.01C15.4,7.01 15.18,7.24 15.18,7.52L15.18,8.64C15.18,8.92 14.98,9.08 14.73,9.2C14.63,9.25 14.52,9.28 14.42,9.31Z" style="fill:rgb(155,186,76);fill-rule:nonzero;"/>
    </g>
</svg>
